# xmcd CD database file
#
# Track frame offsets:
#	150
#	21812
#	41925
#
# Disc length: 844 seconds
#
# Revision: 0
# Processed by: cddbd v1.5.1PL2 Copyright (c) Steve Scherf et al.
# Submitted via: CDex 1.51
#
DISCID=20034a03
DTITLE=工藤静香 - 雪・月・花
DYEAR=1998
DGENRE=JPop
TTITLE0=雪・月・花
TTITLE1=Ｗｉｓｈ
TTITLE2=雪・月・花　オリジナルカラオケ
EXTD=YEAR: 1998
EXTT0=
EXTT1=
EXTT2=
PLAYORDER=
